/* XPM */
static char *result[] = {
/* columns rows colors chars-per-pixel */
"60 60 32 1 ",
"  c black",
". c #010101",
"X c #020202",
"o c #101010",
"O c gray8",
"+ c gray9",
"@ c #232323",
"# c gray16",
"$ c gray20",
"% c gray21",
"& c gray24",
"* c gray25",
"= c #505050",
"- c gray34",
"; c #585858",
": c #6D6D6D",
"> c #777777",
", c #7C7C7C",
"< c #909090",
"1 c #959595",
"2 c gray59",
"3 c gray62",
"4 c gray64",
"5 c #A4A4A4",
"6 c gray66",
"7 c #AEAEAE",
"8 c gray69",
"9 c #C0C0C0",
"0 c #E7E7E7",
"q c #E9E9E9",
"w c white",
"e c None",
/* pixels */
"eeeeeeeeeeeeeeeeeeeeeeeeeeeeeeeeeeeeeeeeeeeeeeeeeeeeeeeeeeee",
"eeeeeeeeeeeeeeeeeeeeeeeeeeeeeeeeeeeeeeeeeeeeeeeeeeeeeeeeeeee",
"eeeeeeeeeeeeeeeeeeeeeeeeeeeeeeeeeeeeeeeeeeeeeeeeeeeeeeeeeeee",
"eeeeeeeeeeeeeeeeeeeeeeeeeeeeeeeeeeeeeeeeeeeeeeeeeeeeeeeeeeee",
"eeeeeeeeeeeeeeeeeeeeeeeeeeeeeeeeeeeeeeeeeeeeeeeeeeeeeeeeeeee",
"eeeeeeeeeeeeeeeeeeeeeeeeeeeeeeeeeeeeeeeeeeeeeeeeeeeeeeeeeeee",
"eeeeeeeeeeeeeeeeeeeeeeeeeeeeeeeeeeeeeeeeeeeeeeeeeeeeeeeeeeee",
"eeeeeeeeeeeeeeeeeeeeeeeeeeeeeeeeeeeeeeeeeeeeeeeeeeeeeeeeeeee",
"eeeeeeeeeeeeeeeeeeeeeeeeeeeeeeeeeeeeeeeeeeeeeeeeeeeeeeeeeeee",
"eeeeeeeeeeeeeeeeeeeeeeeeeeeeeeeeeeeeeeeeeeeeeeeeeeeeeeeeeeee",
"eeeeeeeeeeeeeee       eeeee        eeeeee      eeeeeeeeeeeee",
"eeeeeeeeeeeeeee       eeeee        eeeee       eeeeeeeeeeeee",
"eeeeeeeeeeeeeee       eeee          eeee       eeeeeeeeeeeee",
"eeeeeeeeeeeeeee                                eeeeeeeeeeeee",
"eeeeeeeeeeeeeee                                eeeeeeeeeeeee",
"eeeeeeeeeeeeeee                                eeeeeeeeeeeee",
"eeeeeeeeeeeeeee                                eeeeeeeeeeeee",
"eeeeeeeeeeeeeee9wwwwwwwwwwwwwwwwwwwwwwwwwwwwwwqXeeeeeeeeeeee",
"eeeeeeeeeeeeeee%==============================&eeeeeeeeeeeee",
"eeeeeeeeeeeeeeee                              eeeeeeeeeeeeee",
"eeeeeeeeeeeeeeeeee ,88888888888888888888882. eeeeeeeeeeeeeee",
"eeeeeeeeeeeeeeeeeee>6666666666666666666666< eeeeeeeeeeeeeeee",
"eeeeeeeeeeeeeeeeeee                        eeeeeeeeeeeeeeeee",
"eeeeeeeeeeeeeeeeeee                        eeeeeeeeeeeeeeeee",
"eeeeeeeeeeeeeeeeeee                        eeeeeeeeeeeeeeeee",
"eeeeeeeeeeeeeeeeeee                        eeeeeeeeeeeeeeeee",
"eeeeeeeeeeeeeeeeeee                        eeeeeeeeeeeeeeeee",
"eeeeeeeeeeeeeeeeeee                        eeeeeeeeeeeeeeeee",
"eeeeeeeeeeeeeeeeeee                        eeeeeeeeeeeeeeeee",
"eeeeeeeeeeeeeeeeeee                        eeeeeeeeeeeeeeeee",
"eeeeeeeeeeeeeeeeeee                        eeeeeeeeeeeeeeeee",
"eeeeeeeeeeeeeeeeeee                        eeeeeeeeeeeeeeeee",
"eeeeeeeeeeeeeeeeeee                        eeeeeeeeeeeeeeeee",
"eeeeeeeeeeeeeeeeeee                        eeeeeeeeeeeeeeeee",
"eeeeeeeeeeeeeeeeeee                        eeeeeeeeeeeeeeeee",
"eeeeeeeeeeeeeeeeeee                        eeeeeeeeeeeeeeeee",
"eeeeeeeeeeeeeeeeeee                        eeeeeeeeeeeeeeeee",
"eeeeeeeeeeeeeeeeeee$;;;;;;;;;;;;;;;;;;;;;;*eeeeeeeeeeeeeeeee",
"eeeeeeeeeeeeeeeeee 9wwwwwwwwwwwwwwwwwwwwww0.eeeeeeeeeeeeeeee",
"eeeeeeeeeeeeeeeeee                          eeeeeeeeeeeeeeee",
"eeeeeeeeeeeeeeeeeO58888888888888888888888887#eeeeeeeeeeeeeee",
"eeeeeeeeeeeeeeee o36666666666666666666666664@ eeeeeeeeeeeeee",
"eeeeeeeeeeeeeeee                              eeeeeeeeeeeeee",
"eeeeeeeeeeeeeeee                              eeeeeeeeeeeeee",
"eeeeeeeeeeeeeeee                              eeeeeeeeeeeeee",
"eeeeeeeeeeeeeeee+-;;;;;;;;;;;;;;;;;;;;;;;;;;;@eeeeeeeeeeeeee",
"eeeeeeeeeeeee   :wwwwwwwwwwwwwwwwwwwwwwwwwwww1    eeeeeeeeee",
"eeeeeeeeeeee                                      eeeeeeeeee",
"eeeeeeeeeeee                                      eeeeeeeeee",
"eeeeeeeeeeee                                      eeeeeeeeee",
"eeeeeeeeeeee                                      eeeeeeeeee",
"eeeeeeeeeeeee                                     eeeeeeeeee",
"eeeeeeeeeeeeeeeeeeeeeeeeeeeeeeeeeeeeeeeeeeeeeeeeeeeeeeeeeeee",
"eeeeeeeeeeeeeeeeeeeeeeeeeeeeeeeeeeeeeeeeeeeeeeeeeeeeeeeeeeee",
"eeeeeeeeeeeeeeeeeeeeeeeeeeeeeeeeeeeeeeeeeeeeeeeeeeeeeeeeeeee",
"eeeeeeeeeeeeeeeeeeeeeeeeeeeeeeeeeeeeeeeeeeeeeeeeeeeeeeeeeeee",
"eeeeeeeeeeeeeeeeeeeeeeeeeeeeeeeeeeeeeeeeeeeeeeeeeeeeeeeeeeee",
"eeeeeeeeeeeeeeeeeeeeeeeeeeeeeeeeeeeeeeeeeeeeeeeeeeeeeeeeeeee",
"eeeeeeeeeeeeeeeeeeeeeeeeeeeeeeeeeeeeeeeeeeeeeeeeeeeeeeeeeeee",
"eeeeeeeeeeeeeeeeeeeeeeeeeeeeeeeeeeeeeeeeeeeeeeeeeeeeeeeeeeee"
};
