/* XPM */
static char *result[] = {
/* columns rows colors chars-per-pixel */
"60 60 103 2 ",
"   c black",
".  c #010101",
"X  c gray1",
"o  c #040404",
"O  c #060606",
"+  c #070707",
"@  c #090909",
"#  c #0B0B0B",
"$  c gray5",
"%  c #0E0E0E",
"&  c gray6",
"*  c #101010",
"=  c #111111",
"-  c gray7",
";  c #151515",
":  c gray9",
">  c #191919",
",  c gray11",
"<  c #1D1D1D",
"1  c #202020",
"2  c #222222",
"3  c #232323",
"4  c gray14",
"5  c #252525",
"6  c #282828",
"7  c gray20",
"8  c #393939",
"9  c #3A3A3A",
"0  c gray24",
"q  c #3E3E3E",
"w  c gray25",
"e  c gray27",
"r  c #484848",
"t  c #4B4B4B",
"y  c gray31",
"u  c #515151",
"i  c gray33",
"p  c #555555",
"a  c #565656",
"s  c gray34",
"d  c #585858",
"f  c gray35",
"g  c #5B5B5B",
"h  c #626262",
"j  c #646464",
"k  c #6A6A6A",
"l  c gray42",
"z  c gray43",
"x  c #717171",
"c  c #727272",
"v  c gray45",
"b  c gray46",
"n  c gray47",
"m  c #808080",
"M  c #838383",
"N  c gray55",
"B  c #8D8D8D",
"V  c #909090",
"C  c #929292",
"Z  c #939393",
"A  c #959595",
"S  c #989898",
"D  c gray61",
"F  c #9D9D9D",
"G  c gray62",
"H  c #9F9F9F",
"J  c #A4A4A4",
"K  c #A5A5A5",
"L  c #ACACAC",
"P  c #B2B2B2",
"I  c gray70",
"U  c #B7B7B7",
"Y  c #B9B9B9",
"T  c gray75",
"R  c #C0C0C0",
"E  c gray78",
"W  c gray79",
"Q  c #CECECE",
"!  c LightGray",
"~  c #D7D7D7",
"^  c gray85",
"/  c gray88",
"(  c #E1E1E1",
")  c #E2E2E2",
"_  c gray89",
"`  c #E4E4E4",
"'  c gray90",
"]  c #E6E6E6",
"[  c #E7E7E7",
"{  c gray91",
"}  c #EAEAEA",
"|  c gray93",
" . c #EEEEEE",
".. c #EFEFEF",
"X. c #F4F4F4",
"o. c gray96",
"O. c #F6F6F6",
"+. c #F8F8F8",
"@. c #FBFBFB",
"#. c gray99",
"$. c #FEFEFE",
"%. c white",
"&. c None",
/* pixels */
"&.&.&.&.&.&.&.&.&.&.&.&.&.&.&.&.&.&.&.&.&.&.&.&.&.&.&.&.&.&.&.&.&.&.&.&.&.&.&.&.&.&.&.&.&.&.&.&.&.&.&.&.&.&.&.&.&.&.&.&.",
"&.&.&.&.&.&.&.&.&.&.&.&.&.&.&.&.&.&.&.&.&.&.&.&.&.&.&.&.&.&.&.&.&.&.&.&.&.&.&.&.&.&.&.&.&.&.&.&.&.&.&.&.&.&.&.&.&.&.&.&.",
"&.&.&.&.&.&.&.&.&.&.&.&.&.&.&.&.&.&.&.&.&.&.&.&.&.&.&.&.&.&.&.&.&.&.&.&.&.&.&.&.&.&.&.&.&.&.&.&.&.&.&.&.&.&.&.&.&.&.&.&.",
"&.&.&.&.&.&.&.&.&.&.&.&.&.&.&.&.&.&.&.&.&.&.&.&.&.&.&.&.&.&.&.&.&.&.&.&.&.&.&.&.&.&.&.&.&.&.&.&.&.&.&.&.&.&.&.&.&.&.&.&.",
"&.&.&.&.&.&.&.&.&.&.&.&.&.&.&.&.&.&.&.&.&.&.&.&.&.&.&.&.&.&.&.&.&.&.&.&.&.&.&.&.&.&.&.&.&.&.&.&.&.&.&.&.&.&.&.&.&.&.&.&.",
"&.&.&.&.&.&.&.&.&.&.&.&.&.&.&.&.&.&.&.&.&.&.&.&.&.&.&.&.&.&.&.&.&.&.&.&.&.&.&.&.&.&.&.&.&.&.&.&.&.&.&.&.&.&.&.&.&.&.&.&.",
"&.&.&.&.&.&.&.&.&.&.&.&.&.&.&.&.&.&.&.&.&.&.&.&.&.&.&.&.&.&.&.&.&.&.&.&.&.&.&.&.&.&.&.&.&.&.&.&.&.&.&.&.&.&.&.&.&.&.&.&.",
"&.&.&.&.&.&.&.&.&.&.&.&.&.&.&.&.&.&.&.&.&.&.&.&.&.&.&.&.&.&.&.&.&.&.&.&.&.&.&.&.&.&.&.&.&.&.&.&.&.&.&.&.&.&.&.&.&.&.&.&.",
"&.&.&.&.&.&.&.&.&.&.&.&.&.&.&.&.&.&.&.    &.&.&.&.&.&.&.    &.&.&.&.&.&.&.&.&.&.&.&.&.&.&.&.&.&.&.&.&.&.&.&.&.&.&.&.&.&.",
"&.&.&.&.&.&.&.&.&.&.&.&.&.&.&.&.&.&.        &.&.&.&.&.        &.&.&.&.&.&.&.&.&.&.&.&.&.&.&.&.&.&.&.&.&.&.&.&.&.&.&.&.&.",
"&.&.&.&.&.&.&.&.&.&.&.&.&.&.&.&.&.&.          &.&.&.          &.&.&.&.&.&.&.&.&.&.&.&.&.&.&.&.&.&.&.&.&.&.&.&.&.&.&.&.&.",
"&.&.&.&.&.&.&.&.&.&.&.&.&.&.&.&.&.&.          &.&.            &.&.&.&.&.&.&.&.&.&.&.&.&.&.&.&.&.&.&.&.&.&.&.&.&.&.&.&.&.",
"&.&.&.&.&.&.&.&.&.&.&.&.&.&.&.&.&.&.                                  &.&.&.&.&.&.&.&.&.&.&.&.&.&.&.&.&.&.&.&.&.&.&.&.&.",
"&.&.&.&.&.&.&.&.&.&.&.&.&.&.&.&.&.&.                              k G a =   &.&.&.&.&.&.&.&.&.&.&.&.&.&.&.&.&.&.&.&.&.&.",
"&.&.&.&.&.&.&.&.&.&.&.&.&.&.&.&.&.&.                              Q %.%.#.T 0   &.&.&.&.&.&.&.&.&.&.&.&.&.&.&.&.&.&.&.&.",
"&.&.&.&.&.&.&.&.&.&.&.&.&.&.&.&.&.&.                              e K +.%.%.%.L 3 &.&.&.&.&.&.&.&.&.&.&.&.&.&.&.&.&.&.&.",
"&.&.&.&.&.&.&.&.&.&.&.&.&.&.&.&.&.                                    - v ..%.%.+.i   &.&.&.&.&.&.&.&.&.&.&.&.&.&.&.&.&.",
"&.&.&.&.&.&.&.&.&.&.&.&.&.&.&.&.        l Z .                             : J %.%.#.h   &.&.&.&.&.&.&.&.&.&.&.&.&.&.&.&.",
"&.&.&.&.&.&.&.&.&.&.&.&.&.&.&.      . C %.%.1                                 s @.%.$.x   &.&.&.&.&.&.&.&.&.&.&.&.&.&.&.",
"&.&.&.&.&.&.&.&.&.&.&.&.&.&.&.      p %.%.X.X                                   s #.%.%.r   &.&.&.&.&.&.&.&.&.&.&.&.&.&.",
"&.&.&.&.&.&.&.&.&.&.&.&.&.&.        Z %.%.U                                       g %.%._ & &.&.&.&.&.&.&.&.&.&.&.&.&.&.",
"&.&.&.&.&.&.&.&.&.&.&.&.&.&.        Y %.! ,                                         H %.%.F   &.&.&.&.&.&.&.&.&.&.&.&.&.",
"&.&.&.&.&.&.&.&.&.&.&.&.&.          t A &                                           = { %.%.r   &.&.&.&.&.&.&.&.&.&.&.&.",
"&.&.&.&.&.&.&.&.&.&.&.&.&.                                                            p %.%.W   &.&.&.&.&.&.&.&.&.&.&.&.",
"&.&.&.&.&.&.&.&.&.&.&.&.                                                                T %.%.7   &.&.&.&.&.&.&.&.&.&.&.",
"&.&.&.&.&.&.&.&.&.&.&.                                                                  i %.%.D   &.&.&.&.&.&.&.&.&.&.&.",
"&.&.&.&.&.&.&.&.&.&.&.                                                                  o ] %.o.*   &.&.&.&.&.&.&.&.&.&.",
"&.&.&.&.&.&.&.&.&.&.                                                                      M %.%.z   &.&.&.&.&.&.&.&.&.&.",
"&.&.&.&.&.&.&.&.&.&.                                                                      < #.%.R   &.&.&.&.&.&.&.&.&.&.",
"&.&.&.&.&.&.&.&.&.                                                                          E %.O.O &.&.&.&.&.&.&.&.&.&.",
"&.&.&.&.&.&.&.&.&.                                          &.                              V %.%.8   &.&.&.&.&.&.&.&.&.",
"&.&.&.&.&.&.&.&.&.      $ @                               &.                                f %.%.b   &.&.&.&.&.&.&.&.&.",
"&.&.&.&.&.&.&.&.      u $. .1                         &.&.&.                                2 %.%.P   &.&.&.&.&.&.&.&.&.",
"&.&.&.&.&.&.&.&.      m %.%.w                       &.&.&.&.                                  } %.| . &.&.&.&.&.&.&.&.&.",
"&.&.&.&.&.&.&.&.      4 L S @                     &.&.&.&.&.                                  I %.%.3   &.&.&.&.&.&.&.&.",
"&.&.&.&.&.&.&.&.                                &.&.&.&.&.                                    B %.%.q   &.&.&.&.&.&.&.&.",
"&.&.&.&.&.&.&.&.                            &.&.&.&.&.&.&.                                    n %.%.d   &.&.&.&.&.&.&.&.",
"&.&.&.&.&.&.&.&.                          &.&.&.&.&.&.&.                                      j %.%.c   &.&.&.&.&.&.&.&.",
"&.&.&.&.&.&.&.&.&.                      &.&.&.&.&.&.&.                                        y %.%.N   &.&.&.&.&.&.&.&.",
"&.&.&.&.&.&.&.&.&.&.                  &.&.&.&.&.&.&.                                          9 %.%.K   &.&.&.&.&.&.&.&.",
"&.&.&.&.&.&.&.&.&.&.&.&.&.&.          &.&.&.&.&.&.                                            5 %.%.T   &.&.&.&.&.&.&.&.",
"&.&.&.&.&.&.&.&.&.&.&.&.&.&.&.&.  &.&.&.&.&.&.&.                                              * %.%.^   &.&.&.&.&.&.&.&.",
"&.&.&.&.&.&.&.&.&.&.&.&.&.&.&.&.&.&.&.&.&.&.&.&.                                              . %.%.[   &.&.&.&.&.&.&.&.",
"&.&.&.&.&.&.&.&.&.&.&.&.&.&.&.&.&.&.&.&.&.&.&.                                                o %.%.]   &.&.&.&.&.&.&.&.",
"&.&.&.&.&.&.&.&.&.&.&.&.&.&.&.&.&.&.&.&.&.&.                                                  + %.%.'   &.&.&.&.&.&.&.&.",
"&.&.&.&.&.&.&.&.&.&.&.&.&.&.&.&.&.&.&.&.&.                                                    # %.%.'   &.&.&.&.&.&.&.&.",
"&.&.&.&.&.&.&.&.&.&.&.&.&.&.&.&.&.&.&.&.&.                                                    % %.%.`   &.&.&.&.&.&.&.&.",
"&.&.&.&.&.&.&.&.&.&.&.&.&.&.&.&.&.&.&.&.                                                      - %.%._   &.&.&.&.&.&.&.&.",
"&.&.&.&.&.&.&.&.&.&.&.&.&.&.&.&.&.&.&.&.                                                      ; %.%.)   &.&.&.&.&.&.&.&.",
"&.&.&.&.&.&.&.&.&.&.&.&.&.&.&.&.&.&.&.&.                                                      > %.%.(     &.&.&.&.&.&.&.",
"&.&.&.&.&.&.&.&.&.&.&.&.&.&.&.&.&.&.&.&.                                                      < %.%./     &.&.&.&.&.&.&.",
"&.&.&.&.&.&.&.&.&.&.&.&.&.&.&.&.&.&.&.&.                                                      6 %.%.~   &.&.&.&.&.&.&.&.",
"&.&.&.&.&.&.&.&.&.&.&.&.&.&.&.&.&.&.&.&.&.&.&.&.&.&.&.&.&.&.&.&.&.&.&.&.&.&.&.&.&.&.&.&.&.&.&.&.&.&.&.&.&.&.&.&.&.&.&.&.",
"&.&.&.&.&.&.&.&.&.&.&.&.&.&.&.&.&.&.&.&.&.&.&.&.&.&.&.&.&.&.&.&.&.&.&.&.&.&.&.&.&.&.&.&.&.&.&.&.&.&.&.&.&.&.&.&.&.&.&.&.",
"&.&.&.&.&.&.&.&.&.&.&.&.&.&.&.&.&.&.&.&.&.&.&.&.&.&.&.&.&.&.&.&.&.&.&.&.&.&.&.&.&.&.&.&.&.&.&.&.&.&.&.&.&.&.&.&.&.&.&.&.",
"&.&.&.&.&.&.&.&.&.&.&.&.&.&.&.&.&.&.&.&.&.&.&.&.&.&.&.&.&.&.&.&.&.&.&.&.&.&.&.&.&.&.&.&.&.&.&.&.&.&.&.&.&.&.&.&.&.&.&.&.",
"&.&.&.&.&.&.&.&.&.&.&.&.&.&.&.&.&.&.&.&.&.&.&.&.&.&.&.&.&.&.&.&.&.&.&.&.&.&.&.&.&.&.&.&.&.&.&.&.&.&.&.&.&.&.&.&.&.&.&.&.",
"&.&.&.&.&.&.&.&.&.&.&.&.&.&.&.&.&.&.&.&.&.&.&.&.&.&.&.&.&.&.&.&.&.&.&.&.&.&.&.&.&.&.&.&.&.&.&.&.&.&.&.&.&.&.&.&.&.&.&.&.",
"&.&.&.&.&.&.&.&.&.&.&.&.&.&.&.&.&.&.&.&.&.&.&.&.&.&.&.&.&.&.&.&.&.&.&.&.&.&.&.&.&.&.&.&.&.&.&.&.&.&.&.&.&.&.&.&.&.&.&.&.",
"&.&.&.&.&.&.&.&.&.&.&.&.&.&.&.&.&.&.&.&.&.&.&.&.&.&.&.&.&.&.&.&.&.&.&.&.&.&.&.&.&.&.&.&.&.&.&.&.&.&.&.&.&.&.&.&.&.&.&.&."
};
