/* XPM */
static char *result[] = {
/* columns rows colors chars-per-pixel */
"60 60 201 2 ",
"   c black",
".  c #010101",
"X  c #020202",
"o  c gray1",
"O  c #040404",
"+  c gray2",
"@  c #060606",
"#  c #070707",
"$  c #090909",
"%  c gray4",
"&  c #0C0C0C",
"*  c #0E0E0E",
"=  c #101010",
"-  c #111111",
";  c gray7",
":  c #131313",
">  c gray8",
",  c #151515",
"<  c #161616",
"1  c #181818",
"2  c #191919",
"3  c gray10",
"4  c #1B1B1B",
"5  c gray11",
"6  c #1D1D1D",
"7  c #1E1E1E",
"8  c gray12",
"9  c #202020",
"0  c gray13",
"q  c #222222",
"w  c #232323",
"e  c gray14",
"r  c gray15",
"t  c #272727",
"y  c #282828",
"u  c gray16",
"i  c #2A2A2A",
"p  c gray17",
"a  c #2C2C2C",
"s  c #2D2D2D",
"d  c gray18",
"f  c #2F2F2F",
"g  c gray19",
"h  c #313131",
"j  c #323232",
"k  c gray20",
"l  c #343434",
"z  c #373737",
"x  c #393939",
"c  c gray23",
"v  c #3C3C3C",
"b  c #3F3F3F",
"n  c gray26",
"m  c #464646",
"M  c gray28",
"N  c #484848",
"B  c #4B4B4B",
"V  c gray30",
"C  c #4E4E4E",
"Z  c gray31",
"A  c #505050",
"S  c #515151",
"D  c gray32",
"F  c #535353",
"G  c gray33",
"H  c #555555",
"J  c #565656",
"K  c gray34",
"L  c #585858",
"P  c gray35",
"I  c #5A5A5A",
"U  c #5D5D5D",
"Y  c #5F5F5F",
"T  c #606060",
"R  c gray38",
"E  c #626262",
"W  c gray39",
"Q  c #646464",
"!  c #656565",
"~  c #676767",
"^  c #686868",
"/  c DimGray",
"(  c #6A6A6A",
")  c gray42",
"_  c #6C6C6C",
"`  c gray43",
"'  c gray44",
"]  c #727272",
"[  c gray45",
"{  c #767676",
"}  c #777777",
"|  c gray47",
" . c gray48",
".. c #7B7B7B",
"X. c #7C7C7C",
"o. c gray49",
"O. c #7E7E7E",
"+. c gray50",
"@. c #818181",
"#. c gray51",
"$. c #838383",
"%. c #848484",
"&. c #868686",
"*. c gray53",
"=. c #888888",
"-. c gray54",
";. c #8B8B8B",
":. c gray55",
">. c gray56",
",. c #909090",
"<. c #939393",
"1. c gray58",
"2. c #959595",
"3. c gray59",
"4. c #979797",
"5. c #989898",
"6. c gray60",
"7. c #9A9A9A",
"8. c #9B9B9B",
"9. c gray61",
"0. c #9D9D9D",
"q. c gray62",
"w. c #9F9F9F",
"e. c #A0A0A0",
"r. c gray63",
"t. c #A2A2A2",
"y. c gray64",
"u. c #A5A5A5",
"i. c gray65",
"p. c #A7A7A7",
"a. c #A9A9A9",
"s. c #ACACAC",
"d. c gray68",
"f. c #AEAEAE",
"g. c #AFAFAF",
"h. c gray69",
"j. c #B1B1B1",
"k. c #B2B2B2",
"l. c #B4B4B4",
"z. c gray71",
"x. c #B7B7B7",
"c. c gray72",
"v. c #B9B9B9",
"b. c #BBBBBB",
"n. c #BCBCBC",
"m. c gray74",
"M. c gray",
"N. c gray75",
"B. c #C0C0C0",
"V. c #C1C1C1",
"C. c gray76",
"Z. c #C3C3C3",
"A. c #C6C6C6",
"S. c gray78",
"D. c #C8C8C8",
"F. c #CACACA",
"G. c #CBCBCB",
"H. c gray80",
"J. c #CDCDCD",
"K. c #CECECE",
"L. c gray82",
"P. c #D2D2D2",
"I. c LightGray",
"U. c gray83",
"Y. c gray84",
"T. c #D7D7D7",
"R. c gray85",
"E. c #DADADA",
"W. c gray86",
"Q. c gainsboro",
"!. c #DDDDDD",
"~. c gray87",
"^. c #DFDFDF",
"/. c gray88",
"(. c #E1E1E1",
"). c #E2E2E2",
"_. c gray89",
"`. c gray90",
"'. c #E6E6E6",
"]. c #E7E7E7",
"[. c #E9E9E9",
"{. c #EAEAEA",
"}. c gray92",
"|. c #ECECEC",
" X c gray93",
".X c #EEEEEE",
"XX c #EFEFEF",
"oX c gray94",
"OX c gray95",
"+X c #F3F3F3",
"@X c gray96",
"#X c #F6F6F6",
"$X c gray97",
"%X c #F8F8F8",
"&X c #F9F9F9",
"*X c #FBFBFB",
"=X c gray99",
"-X c #FDFDFD",
";X c #FEFEFE",
":X c white",
">X c None",
/* pixels */
">X>X>X>X>X>X>X>X>X>X>X>X>X>X>X>X>X>X>X>X>X>X>X>X>X>X>X>X>X>X>X>X>X>X>X>X>X>X>X>X>X>X>X>X>X>X>X>X>X>X>X>X>X>X>X>X>X>X>X>X",
">X>X>X>X>X>X>X>X>X>X>X>X>X>X>X>X>X>X>X>X>X>X>X>X>X>X>X>X>X>X>X>X>X>X>X>X>X>X>X>X>X>X>X>X>X>X>X>X>X>X>X>X>X>X>X>X>X>X>X>X",
">X>X>X>X>X>X>X>X>X>X>X>X>X>X>X>X>X>X>X>X>X>X>X>X>X>X>X>X>X>X>X>X>X>X>X>X>X>X>X>X>X>X>X>X>X>X>X>X>X>X>X>X>X>X>X>X>X>X>X>X",
">X>X>X>X>X>X>X>X>X>X>X>X>X>X>X>X>X>X>X>X>X>X>X>X>X>X>X>X>X>X>X>X>X>X>X>X>X>X>X>X>X>X>X>X>X>X>X>X>X>X>X>X>X>X>X>X>X>X>X>X",
">X>X>X>X>X>X>X>X>X>X>X>X>X>X>X>X>X>X>X>X>X>X>X>X>X>X>X>X>X>X>X>X>X>X>X>X>X>X>X>X>X>X>X>X>X>X>X>X>X>X>X>X>X>X>X>X>X>X>X>X",
">X>X>X>X>X>X>X>X>X>X>X>X>X>X>X>X>X>X>X>X>X>X>X>X>X>X>X>X>X>X>X>X>X>X>X>X>X>X>X>X>X>X>X>X>X>X>X>X>X>X>X>X>X>X>X>X>X>X>X>X",
">X>X>X>X>X>X>X>X>X>X>X>X>X>X>X>X>X>X>X>X>X>X>X>X>X>X>X>X>X>X>X>X>X>X>X>X>X>X>X>X>X>X>X>X>X>X>X>X>X>X>X>X>X>X>X>X>X>X>X>X",
">X>X>X>X>X>X>X>X>X>X>X>X>X>X>X>X>X>X>X>X>X>X>X>X>X>X>X>X>X    >X>X>X>X>X>X>X>X>X>X>X>X>X>X>X>X>X>X>X>X>X>X>X>X>X>X>X>X>X",
">X>X>X>X>X>X>X>X>X>X>X>X>X>X>X>X>X>X>X>X>X>X>X>X>X>X>X>X>X    >X>X>X>X>X>X>X>X>X>X>X>X>X>X>X>X>X>X>X>X>X>X>X>X>X>X>X>X>X",
">X>X>X>X>X>X>X>X>X>X>X>X>X>X>X>X>X>X>X>X>X>X>X>X>X>X>X              >X>X>X>X>X>X>X>X>X>X>X>X>X>X>X>X>X>X>X>X>X>X>X>X>X>X",
">X>X>X>X>X>X>X>X>X>X>X>X>X>X>X>X>X>X>X>X>X>X>X>X>X>X                  >X>X>X>X>X>X>X>X>X>X>X>X>X>X>X>X>X>X>X>X>X>X>X>X>X",
">X>X>X>X>X>X>X>X>X>X>X>X>X>X>X>X>X>X>X>X>X>X>X>X>X>X>X>X>X    >X>X>X>X>X>X>X>X>X>X>X>X>X>X>X>X>X>X>X>X>X>X>X>X>X>X>X>X>X",
">X>X>X>X>X>X>X>X>X>X>X>X>X>X>X>X>X>X>X>X>X>X>X>X>X>X>X>X>X    >X>X>X>X>X>X>X>X>X>X>X>X>X>X>X>X>X>X>X>X>X>X>X>X>X>X>X>X>X",
">X>X>X>X>X>X>X>X>X>X>X>X>X>X>X>X>X>X>X>X>X>X>X>X>X>X>X>X>X    >X>X>X>X>X>X>X>X>X>X>X>X>X>X>X>X>X>X>X>X>X>X>X>X>X>X>X>X>X",
">X>X>X>X>X>X>X>X>X>X>X>X>X>X>X>X>X>X>X>X>X>X>X>X>X>X>X>X>X    >X>X>X>X>X>X>X>X>X>X>X>X>X>X>X>X>X>X>X>X>X>X>X>X>X>X>X>X>X",
">X>X>X>X>X>X>X>X>X>X>X>X>X>X>X>X>X>X>X>X>X>X>X>X>X>X>X>X          >X>X>X>X>X>X>X>X>X>X>X>X>X>X>X>X>X>X>X>X>X>X>X>X>X>X>X",
">X>X>X>X>X>X>X>X>X>X>X>X>X>X>X>X>X>X>X>X>X>X>X>X>X>X>X              >X>X>X>X>X>X>X>X>X>X>X>X>X>X>X>X>X>X>X>X>X>X>X>X>X>X",
">X>X>X>X>X>X>X>X>X>X>X>X>X>X>X>X>X>X>X>X>X>X>X>X>X>X                  >X>X>X>X>X>X>X>X>X>X>X>X>X>X>X>X>X>X>X>X>X>X>X>X>X",
">X>X>X>X>X>X>X>X>X>X>X>X>X>X>X>X>X>X>X>X>X>X>X>X>X                    >X>X>X>X>X>X>X>X>X>X>X>X>X>X>X>X>X>X>X>X>X>X>X>X>X",
">X>X>X>X>X>X>X>X>X>X>X>X>X>X>X>X>X>X>X>X>X>X>X>X>X                      >X>X>X>X>X>X>X>X>X>X>X>X>X>X>X>X>X>X>X>X>X>X>X>X",
">X>X>X>X>X>X>X>X>X>X>X>X>X              >X>X>X>X>X                      >X>X>X                >X>X>X>X>X>X>X>X>X>X>X>X>X",
">X>X>X>X>X>X>X>X>X>X>X  X G -.9.g.w./ j O     >X>X                      >X    . y R 7.j.q.:.R $   >X>X>X>X>X>X>X>X>X>X>X",
">X>X>X>X>X>X>X>X>X>X. R E.:X:X:X:X:X:X:XXX=.2   >X                        # ( (.:X:X:X:X:X:X:X}.#.: >X>X>X>X>X>X>X>X>X>X",
">X>X>X>X>X>X>X>X>X  <.:X:X!...E Z ^ 9.P.:X:X&X0.<                     . ) `.:X:X(.i.' Z E | S.:X:X~.6 >X>X>X>X>X>X>X>X>X",
">X>X>X>X>X>X>X>X>XW :X%XY o             l p.*X:X].n                 ; l.:X:XF.S .             x H.:XR.2 >X>X>X>X>X>X>X>X",
">X>X>X>X>X>X>X>Xi &X:XY                     0 C.:X-X#..           j /.:X}.V                     - L.:XG.  >X>X>X>X>X>X>X",
">X>X>X>X>X>X>X>Xo.:Xt.                        o +.=X:X,.        w |.:XS.6                         < {.:Xu >X>X>X>X>X>X>X",
">X>X>X>X>X>X>X  N.:XA                             n $X:X|     = T.:Xb.+                             a.:XE >X>X>X>X>X>X>X",
">X>X>X>X>X>X>X  %X:X:                               Z =X:XI . b.:XL.*                               ] :X4.>X>X>X>X>X>X>X",
">X>X>X>X>X>X>X  |.:X:                                 ^ :X{.~ :X'.5                                 %.:X%.>X>X>X>X>X>X>X",
">X>X>X>X>X>X>X  J.:Xh                                   A.:X-X:XE                                   x.:XG >X>X>X>X>X>X>X",
">X>X>X>X>X>X>X  9.:X,.                                  c :X:XT.o                                 t *X=X5 >X>X>X>X>X>X>X",
">X>X>X>X>X>X>X>Xs ;X$X3                                   V.:XW                                   h.:X5.  >X>X>X>X>X>X>X",
">X>X>X>X>X>X>X>X  f.:XA.#                                 s.:XF                                 o.:XOX1 >X>X>X>X>X>X>X>X",
">X>X>X>X>X>X>X>X>X, ~.:Xx.-                               a.:XJ                               ) :X-XG >X>X>X>X>X>X>X>X>X",
">X>X>X>X>X>X>X>X>X>Xs [.:X!.f                     o 3 k V r..XP q $                       % w.:X:X_   >X>X>X>X>X>X>X>X>X",
">X>X>X>X>X>X>X>X>X>X>X5 S.:X#X[ #     # n *.l.K.].-X:X:X:X:X:X:X:X:XXXY.n.8.P >         u U.:X+XI   >X>X>X>X>X>X>X>X>X>X",
">X>X>X>X>X>X>X>X>X>X>X>X# 2.:X:XU.S z.@X:X:X:X:X:X%X^.A.d.3.u.M.T.oX:X:X:X:X:X;XH.{ 6 @.@X:XP.y >X>X>X>X>X>X>X>X>X>X>X>X",
">X>X>X>X>X>X>X>X>X>X>X>X>X  M (.&X:X:X-XD.@.M p ;                   % w v ) k.+X:X:X-X:X:X7.% >X>X>X>X>X>X>X>X>X>X>X>X>X",
">X>X>X>X>X>X>X>X>X>X>X>X>X>XH :X:XQ.` :                                       @ V n.:X:Xy.  >X>X>X>X>X>X>X>X>X>X>X>X>X>X",
">X>X>X>X>X>X>X>X>X>X>X>X>X>X>X] C X         & r b L ] ;.u.b.s.<. .T M d > .         a } f >X>X>X>X>X>X>X>X>X>X>X>X>X>X>X",
">X>X>X>X>X>X>X>X>X>X>X>X>X>X>X      - G 7.^.:X:X:X:X:X:X:X:X:X:X:X:X:X:X:XOXj.) e         >X>X>X>X>X>X>X>X>X>X>X>X>X>X>X",
">X>X>X>X>X>X>X>X>X>X>X>X>X>X>X  j r.&X:X:X:X@XW.C.a.>.{ U m H ` *.e.v.I.|.:X:X:X:XA.K O   >X>X>X>X>X>X>X>X>X>X>X>X>X>X>X",
">X>X>X>X>X>X>X>X>X>X>X>X>X>X>Xm.:X:X*XN.| h .                             4 E a.XX:X:X).D >X>X>X>X>X>X>X>X>X>X>X>X>X>X>X",
">X>X>X>X>X>X>X>X>X>X>X>X>X>X>X;X X=.6                   . : @                   $ ! I.:X6.>X>X>X>X>X>X>X>X>X>X>X>X>X>X>X",
">X>X>X>X>X>X>X>X>X>X>X>X>X>X>X9 $       o z Q O.4.h.F._.*X:X;X}.P.c.w.&._ B *         q $ >X>X>X>X>X>X>X>X>X>X>X>X>X>X>X",
">X>X>X>X>X>X>X>X>X>X>X>X>X>X>X    % E s..X:X:X:X:X:X:X:X;X.X*X:X:X:X:X:X:X:X*XZ.X.0       >X>X>X>X>X>X>X>X>X>X>X>X>X>X>X",
">X>X>X>X>X>X>X>X>X>X>X>X>X>X>X8 -..X:X:X:XR.w.$.( S z 7 @   . < f N R ..1.Z.*X:X:X-Xg.b   >X>X>X>X>X>X>X>X>X>X>X>X>X>X>X",
">X>X>X>X>X>X>X>X>X>X>X>X>X>X>X#X:X:XB.~ 9                                   * S e.$X:X:X;.>X>X>X>X>X>X>X>X>X>X>X>X>X>X>X",
">X>X>X>X>X>X>X>X>X>X>X>X>X>X>XK.w.g                                               , X.G.q.>X>X>X>X>X>X>X>X>X>X>X>X>X>X>X",
">X>X>X>X>X>X>X>X>X>X>X>X>X>X>X>X>X                                                    >X>X>X>X>X>X>X>X>X>X>X>X>X>X>X>X>X",
">X>X>X>X>X>X>X>X>X>X>X>X>X>X>X>X>X>X>X                                            >X>X>X>X>X>X>X>X>X>X>X>X>X>X>X>X>X>X>X",
">X>X>X>X>X>X>X>X>X>X>X>X>X>X>X>X>X>X>X>X>X>X                              >X>X>X>X>X>X>X>X>X>X>X>X>X>X>X>X>X>X>X>X>X>X>X",
">X>X>X>X>X>X>X>X>X>X>X>X>X>X>X>X>X>X>X>X>X>X>X>X>X>X>X>X>X>X>X>X>X>X>X>X>X>X>X>X>X>X>X>X>X>X>X>X>X>X>X>X>X>X>X>X>X>X>X>X",
">X>X>X>X>X>X>X>X>X>X>X>X>X>X>X>X>X>X>X>X>X>X>X>X>X>X>X>X>X>X>X>X>X>X>X>X>X>X>X>X>X>X>X>X>X>X>X>X>X>X>X>X>X>X>X>X>X>X>X>X",
">X>X>X>X>X>X>X>X>X>X>X>X>X>X>X>X>X>X>X>X>X>X>X>X>X>X>X>X>X>X>X>X>X>X>X>X>X>X>X>X>X>X>X>X>X>X>X>X>X>X>X>X>X>X>X>X>X>X>X>X",
">X>X>X>X>X>X>X>X>X>X>X>X>X>X>X>X>X>X>X>X>X>X>X>X>X>X>X>X>X>X>X>X>X>X>X>X>X>X>X>X>X>X>X>X>X>X>X>X>X>X>X>X>X>X>X>X>X>X>X>X",
">X>X>X>X>X>X>X>X>X>X>X>X>X>X>X>X>X>X>X>X>X>X>X>X>X>X>X>X>X>X>X>X>X>X>X>X>X>X>X>X>X>X>X>X>X>X>X>X>X>X>X>X>X>X>X>X>X>X>X>X",
">X>X>X>X>X>X>X>X>X>X>X>X>X>X>X>X>X>X>X>X>X>X>X>X>X>X>X>X>X>X>X>X>X>X>X>X>X>X>X>X>X>X>X>X>X>X>X>X>X>X>X>X>X>X>X>X>X>X>X>X",
">X>X>X>X>X>X>X>X>X>X>X>X>X>X>X>X>X>X>X>X>X>X>X>X>X>X>X>X>X>X>X>X>X>X>X>X>X>X>X>X>X>X>X>X>X>X>X>X>X>X>X>X>X>X>X>X>X>X>X>X"
};
