/* XPM */
static char *result[] = {
/* columns rows colors chars-per-pixel */
"60 60 93 2 ",
"   c black",
".  c #010101",
"X  c #020202",
"o  c #040404",
"O  c #060606",
"+  c #070707",
"@  c #090909",
"#  c #0B0B0B",
"$  c #0C0C0C",
"%  c gray5",
"&  c #0E0E0E",
"*  c gray6",
"=  c #111111",
"-  c gray7",
";  c gray8",
":  c #161616",
">  c gray10",
",  c #1B1B1B",
"<  c gray11",
"1  c gray13",
"2  c #222222",
"3  c #232323",
"4  c gray14",
"5  c #252525",
"6  c gray16",
"7  c #2A2A2A",
"8  c #2C2C2C",
"9  c gray18",
"0  c #2F2F2F",
"q  c #343434",
"w  c #353535",
"e  c #3C3C3C",
"r  c gray24",
"t  c #3E3E3E",
"y  c #414141",
"u  c #4B4B4B",
"i  c #505050",
"p  c gray32",
"a  c #606060",
"s  c #656565",
"d  c DimGray",
"f  c #6F6F6F",
"g  c #777777",
"h  c #7B7B7B",
"j  c gray49",
"k  c #7E7E7E",
"l  c gray51",
"z  c #8D8D8D",
"x  c #929292",
"c  c gray60",
"v  c gray64",
"b  c gray66",
"n  c #A9A9A9",
"m  c gray67",
"M  c #AEAEAE",
"N  c #B2B2B2",
"B  c gray70",
"V  c #B4B4B4",
"C  c #BBBBBB",
"Z  c gray75",
"A  c #C0C0C0",
"S  c gray76",
"D  c #C6C6C6",
"F  c gray79",
"G  c #CBCBCB",
"H  c gray81",
"J  c #D0D0D0",
"K  c LightGray",
"L  c gray83",
"P  c #D7D7D7",
"I  c #D8D8D8",
"U  c #DADADA",
"Y  c gainsboro",
"T  c #DDDDDD",
"R  c #DFDFDF",
"E  c gray88",
"W  c gray89",
"Q  c gray90",
"!  c #E7E7E7",
"~  c gray91",
"^  c #E9E9E9",
"/  c #EAEAEA",
"(  c gray92",
")  c #EEEEEE",
"_  c #EFEFEF",
"`  c gray95",
"'  c #F4F4F4",
"]  c #F8F8F8",
"[  c gray98",
"{  c gray99",
"}  c #FEFEFE",
"|  c white",
" . c None",
/* pixels */
" . . . . . . . . . . . . . . . . . . . . . . . . . . . . . . . . . . . . . . . . . . . . . . . . . . . . . . . . . . . .",
" . . . . . . . . . . . . . . . . . . . . . . . . . . . . . . . . . . . . . . . . . . . . . . . . . . . . . . . . . . . .",
" . . . . . . . . . . . . . . . . . . . . . . . . . . . . . . . . . . . . . . . . . . . . . . . . . . . . . . . . . . . .",
" . . . . . . . . . . . . . . . . . . . . . . . . . . . . . . . . . . . . . . . . . . . . . . . . . . . . . . . . . . . .",
" . . . . . . . . . . . . . . . . . . . . . . . . . . . . . . . . . . . . . . . . . . . . . . . . . . . . . . . . . . . .",
" . . . . . . . . . . . . . . . . . . . . . . . . . . . . . . . . . . . . . . . . . . . . . . . . . . . . . . . . . . . .",
" . . . . . . . . . . . . . . . . . . . . . . . . . . . . . . . . . . . . . . . . . . . . . . . . . . . . . . . . . . . .",
" . . . . . . . . . . . . . . . . . . . . . . . . . . . . . . . . . . . . . . . . . . . . . . . . . . . . . . . . . . . .",
" . . . . . . . . . . . . . . . . . . . . . . . . . . . . . . . . . . . . . . . . . . . . . . . . . . . . . . . . . . . .",
" . . . . . . . . . . . . . . . . . . . . . . . . . . . . . . . . . . . . . . . . . . . . . . . . . . . . . . . . . . . .",
" . . . . . . . . . . . . . . . . . . . . . . . . . . . .               . . . . . . . . . . . . . . . . . . . . . . . . .",
" . . . . . . . . . . . . . . . . . . . . . . . . . . .    O r d y @      . . . . . . . . . . . . . . . . . . . . . . . .",
" . . . . . . . . . . . . . . . . . . . . . . . . . .    q P | | | E t      . . . . . . . . . . . . . . . . . . . . . . .",
" . . . . . . . . . . . . . . . . . . . . . . . . . .  - ! | | | | | _ >    . . . . . . . . . . . . . . . . . . . . . . .",
" . . . . . . . . . . . . . . . . . . . . . . . . .    j | | | | | | | z      . . . . . . . . . . . . . . . . . . . . . .",
" . . . . . . . . . . . . . . . . . . . . . . . . .    N | | | | | | | S      . . . . . . . . . . . . . . . . . . . . . .",
" . . . . . . . . . . . . . . . . . . . . . . . . .    M | | | | | | | Z      . . . . . . . . . . . . . . . . . . . . . .",
" . . . . . . . . . . . . . . . . . . . . . . . . .    d | | | | | | | k      . . . . . . . . . . . . . . . . . . . . . .",
" . . . . . . . . . . . . . . . . . . . . . . . . . .  O E | | | | | ( %    . . . . . . . . . . . . . . . . . . . . . . .",
" . . . . . . . . . . . . . . . . . . . . . . . . .    $ A | | | | | H =      . . . . . . . . . . . . . . . . . . . . . .",
" . . . . . . . . . . . . . . . . . . . . . . . .    8 I | | | | | | | R w      . . . . . . . . . . . . . . . . . . . . .",
" . . . . . . . . . . . . . . . . . . . . . . .    9 ' | | | | | | | | | ] e      . . . . . . . . . . . . . . . . . . . .",
" . . . . . . . . . . . . . . . . . . . . . . .  $ T | | | | | | | | | | | / ;    . . . . . . . . . . . . . . . . . . . .",
" . . . . . . . . . . . . . . . . . . . . . .    f | | | | | | | | | | | | | k      . . . . . . . . . . . . . . . . . . .",
" . . . . . . . . . . . . . . . . . . . . . .    J | | | | | | | | | | | | | Q      . . . . . . . . . . . . . . . . . . .",
" . . . . . . . . . . . . . . . . . . . . . .  X ] | | | | | | | | | | | | | | =    . . . . . . . . . . . . . . . . . . .",
" . . . . . . . . . . . . . . . . . . . . . .  - | | | | | | | | | | | | | | | 3    . . . . . . . . . . . . . . . . . . .",
" . . . . . . . . . . . . . . . . . . . . . .    R | | | | | | | | | | | | | ) .    . . . . . . . . . . . . . . . . . . .",
" . . . . . . . . . . . . . . . . . . . . . .    v | | | | | | | | | | | | | V      . . . . . . . . . . . . . . . . . . .",
" . . . . . . . . . . . . . . . . . . . . . . .  s | | | | | | | | | | | | | g      . . . . . . . . . . . . . . . . . . .",
" . . . . . . . . . . . . . . . . . . . . . . .  + F | | | | | | | | | | | I &    . . . . . . . . . . . . . . . . . . . .",
" . . . . . . . . . . . . . . . . . . . . . . .    < ^ | | | | | | | | | ` 6      . . . . . . . . . . . . . . . . . . . .",
" . . . . . . . . . . . . . . . . . . . . . . . .    t [ | | | | | | | } p      . . . . . . . . . . . . . . . . . . . . .",
" . . . . . . . . . . . . . . . . . . . . . . . .    o B | | | | | | | D +      . . . . . . . . . . . . . . . . . . . . .",
" . . . . . . . . . . . . . . . . . . . . . .      y L | | | | | | | | | Y u        . . . . . . . . . . . . . . . . . . .",
" . . . . . . . . . . . . . . . . . . . . .    , b | | | | | | | | | | | | | V 3      . . . . . . . . . . . . . . . . . .",
" . . . . . . . . . . . . . . . . . . . .    < W | | | | | | | | | | | | | | | / 4      . . . . . . . . . . . . . . . . .",
" . . . . . . . . . . . . . . . . . . .    * K | | | | | | | | | | | | | | | | | Y :      . . . . . . . . . . . . . . . .",
" . . . . . . . . . . . . . . . . . . .  O Z | | | | | | | | | | | | | | | | | | | G #    . . . . . . . . . . . . . . . .",
" . . . . . . . . . . . . . . . . . .    z | | | | | | | | | | | | | | | | | | | | | v      . . . . . . . . . . . . . . .",
" . . . . . . . . . . . . . . . . . .  - ' | | | | | | | | | | | | | | | | | | | | | { 1    . . . . . . . . . . . . . . .",
" . . . . . . . . . . . . . . . . .    j | | | | | | | | | | | | | | | | | | | | | | | x      . . . . . . . . . . . . . .",
" . . . . . . . . . . . . . . . . .  @ / | | | | | | | | | | | | | | | | | | | | | | | ' -    . . . . . . . . . . . . . .",
" . . . . . . . . . . . . . . . .    d | | | | | | | | | | | | | | | | | | | | | | | | | h      . . . . . . . . . . . . .",
" . . . . . . . . . . . . . . . .    U | | | | | | | | | | | | | | | | | | | | | | | | | ~ X    . . . . . . . . . . . . .",
" . . . . . . . . . . . . . . . .  > | | | | | | | | | | | | | | | | | | | | | | | | | | | 7    . . . . . . . . . . . . .",
" . . . . . . . . . . . . . . . .  i | | | | | | | | | | | | | | | | | | | | | | | | | | | a    . . . . . . . . . . . . .",
" . . . . . . . . . . . . . . .    l | | | | | | | | | | | | | | | | | | | | | | | | | | | x      . . . . . . . . . . . .",
" . . . . . . . . . . . . . . .    c | | | | | | | | | | | | | | | | | | | | | | | | | | | n      . . . . . . . . . . . .",
" . . . . . . . . . . . . . . .    m | | | | | | | | | | | | | | | | | | | | | | | | | | | C      . . . . . . . . . . . .",
" . . . . . . . . . . . . . . .    2 0 0 0 0 0 0 0 0 0 0 0 0 0 0 0 0 0 0 0 0 0 0 0 0 0 0 0 5      . . . . . . . . . . . .",
" . . . . . . . . . . . . . . .                                                                   . . . . . . . . . . . .",
" . . . . . . . . . . . . . . . . . . . . . . . . . . . . . . . . . . . . . . . . . . . . . . . . . . . . . . . . . . . .",
" . . . . . . . . . . . . . . . . . . . . . . . . . . . . . . . . . . . . . . . . . . . . . . . . . . . . . . . . . . . .",
" . . . . . . . . . . . . . . . . . . . . . . . . . . . . . . . . . . . . . . . . . . . . . . . . . . . . . . . . . . . .",
" . . . . . . . . . . . . . . . . . . . . . . . . . . . . . . . . . . . . . . . . . . . . . . . . . . . . . . . . . . . .",
" . . . . . . . . . . . . . . . . . . . . . . . . . . . . . . . . . . . . . . . . . . . . . . . . . . . . . . . . . . . .",
" . . . . . . . . . . . . . . . . . . . . . . . . . . . . . . . . . . . . . . . . . . . . . . . . . . . . . . . . . . . .",
" . . . . . . . . . . . . . . . . . . . . . . . . . . . . . . . . . . . . . . . . . . . . . . . . . . . . . . . . . . . .",
" . . . . . . . . . . . . . . . . . . . . . . . . . . . . . . . . . . . . . . . . . . . . . . . . . . . . . . . . . . . ."
};
