/* XPM */
static char *result[] = {
/* columns rows colors chars-per-pixel */
"60 60 150 2 ",
"   c black",
".  c #010101",
"X  c #020202",
"o  c gray1",
"O  c #040404",
"+  c gray2",
"@  c #060606",
"#  c #070707",
"$  c gray3",
"%  c #090909",
"&  c gray4",
"*  c #0C0C0C",
"=  c gray5",
"-  c #0E0E0E",
";  c gray6",
":  c #101010",
">  c #111111",
",  c gray7",
"<  c #131313",
"1  c gray8",
"2  c #161616",
"3  c gray9",
"4  c #181818",
"5  c #191919",
"6  c gray10",
"7  c #1D1D1D",
"8  c #1E1E1E",
"9  c gray12",
"0  c #202020",
"q  c #232323",
"w  c gray14",
"e  c #252525",
"r  c #282828",
"t  c gray16",
"y  c #2A2A2A",
"u  c #2C2C2C",
"i  c #2F2F2F",
"p  c gray19",
"a  c #313131",
"s  c #343434",
"d  c #353535",
"f  c gray21",
"g  c gray22",
"h  c #393939",
"j  c #3A3A3A",
"k  c #3C3C3C",
"l  c gray24",
"z  c #3F3F3F",
"x  c gray25",
"c  c #414141",
"v  c gray26",
"b  c #434343",
"n  c #444444",
"m  c gray27",
"M  c #464646",
"N  c gray28",
"B  c #494949",
"V  c #4B4B4B",
"C  c #4C4C4C",
"Z  c #515151",
"A  c gray32",
"S  c #555555",
"D  c #565656",
"F  c gray35",
"G  c #5A5A5A",
"H  c gray36",
"J  c #5D5D5D",
"K  c #5F5F5F",
"L  c #606060",
"P  c #626262",
"I  c gray39",
"U  c gray40",
"Y  c #686868",
"T  c #6C6C6C",
"R  c gray43",
"E  c #6F6F6F",
"W  c #727272",
"Q  c #747474",
"!  c gray46",
"~  c gray47",
"^  c #7B7B7B",
"/  c #7C7C7C",
"(  c #7E7E7E",
")  c #818181",
"_  c gray51",
"`  c #838383",
"'  c gray52",
"]  c gray53",
"[  c #888888",
"{  c #8B8B8B",
"}  c #8D8D8D",
"|  c #8E8E8E",
" . c gray56",
".. c #909090",
"X. c #9D9D9D",
"o. c gray62",
"O. c #9F9F9F",
"+. c #A2A2A2",
"@. c gray64",
"#. c #A4A4A4",
"$. c gray65",
"%. c #A7A7A7",
"&. c #A9A9A9",
"*. c #AAAAAA",
"=. c gray67",
"-. c #ACACAC",
";. c #AFAFAF",
":. c #B1B1B1",
">. c #B4B4B4",
",. c gray71",
"<. c #B6B6B6",
"1. c #BBBBBB",
"2. c #BCBCBC",
"3. c gray74",
"4. c gray75",
"5. c #C0C0C0",
"6. c #C3C3C3",
"7. c gray77",
"8. c #C6C6C6",
"9. c #CACACA",
"0. c #CECECE",
"q. c #D0D0D0",
"w. c LightGray",
"e. c gray83",
"r. c #D5D5D5",
"t. c gray84",
"y. c #D7D7D7",
"u. c #D8D8D8",
"i. c #DADADA",
"p. c #DDDDDD",
"a. c gray87",
"s. c #DFDFDF",
"d. c gray89",
"f. c #E4E4E4",
"g. c #E7E7E7",
"h. c gray91",
"j. c #EAEAEA",
"k. c #ECECEC",
"l. c gray93",
"z. c #EFEFEF",
"x. c gray95",
"c. c #F4F4F4",
"v. c gray96",
"b. c gray97",
"n. c #F8F8F8",
"m. c #FBFBFB",
"M. c #FDFDFD",
"N. c #FEFEFE",
"B. c white",
"V. c None",
/* pixels */
"V.V.V.V.V.V.V.V.V.V.V.V.V.V.V.V.V.V.V.V.V.V.V.V.V.V.V.V.V.V.V.V.V.V.V.V.V.V.V.V.V.V.V.V.V.V.V.V.V.V.V.V.V.V.V.V.V.V.V.V.",
"V.V.V.V.V.V.V.V.V.V.V.V.V.V.V.V.V.V.V.V.V.V.V.V.V.V.V.V.V.V.V.V.V.V.V.V.V.V.V.V.V.V.V.V.V.V.V.V.V.V.V.V.V.V.V.V.V.V.V.V.",
"V.V.V.V.V.V.V.V.V.V.V.V.V.V.V.V.V.V.V.V.V.V.V.V.V.V.V.V.V.V.V.V.V.V.V.V.V.V.V.V.V.V.V.V.V.V.V.V.V.V.V.V.V.V.V.V.V.V.V.V.",
"V.V.V.V.V.V.V.V.V.V.V.V.V.V.V.V.V.V.V.V.V.V.V.V.V.V.V.V.V.V.V.V.V.V.V.V.V.V.V.V.V.V.V.V.V.V.V.V.V.V.V.V.V.V.V.V.V.V.V.V.",
"V.V.V.V.V.V.V.V.V.V.V.V.V.V.V.V.V.V.V.V.V.V.V.V.V.V.V.V.V.V.V.V.V.V.V.V.V.V.V.V.V.V.V.V.V.V.V.V.V.V.V.V.V.V.V.V.V.V.V.V.",
"V.V.V.V.V.V.V.V.V.V.V.V.V.V.V.V.V.V.V.V.V.V.V.V.V.V.V.V.V.V.V.V.V.V.V.V.V.V.V.V.V.V.V.V.V.V.V.V.V.V.V.V.V.V.V.V.V.V.V.V.",
"V.V.V.V.V.V.V.V.V.V.V.V.V.V.V.V.V.V.V.V.V.V.V.V.V.V.V.V.V.V.V.V.V.V.V.V.V.V.V.V.V.V.V.V.V.V.V.V.V.V.V.V.V.V.V.V.V.V.V.V.",
"V.V.V.V.V.V.V.V.V.V.V.V.V.V.V.V.V.V.V.V.V.V.V.V.V.V.V.V.V.        V.V.V.V.V.V.V.V.V.V.V.V.V.V.V.V.V.V.V.V.V.V.V.V.V.V.V.",
"V.V.V.V.V.V.V.V.V.V.V.V.V.V.V.V.V.V.V.V.V.V.V.V.V.V.V.V.    w u     V.V.V.V.V.V.V.V.V.V.V.V.V.V.V.V.V.V.V.V.V.V.V.V.V.V.",
"V.V.V.V.V.V.V.V.V.V.V.V.V.V.V.V.V.V.V.V.V.V.V.V.V.V.V.    ^ N.B.%..   V.V.V.V.V.V.V.V.V.V.V.V.V.V.V.V.V.V.V.V.V.V.V.V.V.",
"V.V.V.V.V.V.V.V.V.V.V.V.V.V.V.V.V.V.V.V.V.V.V.V.V.V.V.  5 N.B.B.B.c   V.V.V.V.V.V.V.V.V.V.V.V.V.V.V.V.V.V.V.V.V.V.V.V.V.",
"V.V.V.V.V.V.V.V.V.V.V.V.V.V.V.V.V.V.V.V.V.V.V.V.V.V.V.  0 B.B.B.B.n   V.V.V.V.V.V.V.V.V.V.V.V.V.V.V.V.V.V.V.V.V.V.V.V.V.",
"V.V.V.V.V.V.V.V.V.V.V.V.V.V.V.V.V.V.V.V.V.V.V.V.V.V.V.    } B.B.,.X   V.V.V.V.V.V.V.V.V.V.V.V.V.V.V.V.V.V.V.V.V.V.V.V.V.",
"V.V.V.V.V.V.V.V.V.V.V.V.V.V.V.V.V.V.V.V.V.V.V.V.V.V.V.V.    j b X     V.V.V.V.V.V.V.V.V.V.V.V.V.V.V.V.V.V.V.V.V.V.V.V.V.",
"V.V.V.V.V.V.V.V.V.V.V.V.V.V.V.V.V.V.V.V.V.V.V.V.V.V.V.V.            V.V.V.V.V.V.V.V.V.V.V.V.V.V.V.V.V.V.V.V.V.V.V.V.V.V.",
"V.V.V.V.V.V.V.V.V.V.V.V.V.V.V.V.V.V.V.V.V.V.V.V.V.V.        r f         V.V.V.V.V.V.V.V.V.V.V.V.V.V.V.V.V.V.V.V.V.V.V.V.",
"V.V.V.V.V.V.V.V.V.V.V.V.V.V.V.V.V.V.V.V.V.V.V.V.V.      x 1.B.B.q.S X     V.V.V.V.V.V.V.V.V.V.V.V.V.V.V.V.V.V.V.V.V.V.V.",
"V.V.V.V.V.V.V.V.V.V.V.V.V.V.V.V.V.V.V.V.V.V.V.V.    s 7.B.B.B.B.B.B.t.V     V.V.V.V.V.V.V.V.V.V.V.V.V.V.V.V.V.V.V.V.V.V.",
"V.V.V.V.V.V.V.V.V.V.V.V.V.V.V.V.V.V.V.V.V.V.V.    G b.B.B.B.B.B.B.B.B.N.( .     V.V.V.V.V.V.V.V.V.V.V.V.V.V.V.V.V.V.V.V.",
"V.V.V.V.V.V.V.V.V.V.V.V.V.V.V.V.V.V.V.V.V.V.  . ' B.B.B.B.B.B.B.B.B.B.B.B.=.&     V.V.V.V.V.V.V.V.V.V.V.V.V.V.V.V.V.V.V.",
"V.V.V.V.V.V.V.V.V.V.V.V.V.V.V.V.V.V.V.V.V.    X.B.B.B.B.B.B.Y M N.B.B.B.B.B.6.o   V.V.V.V.V.V.V.V.V.V.V.V.V.V.V.V.V.V.V.",
"V.V.V.V.V.V.V.V.V.V.V.V.V.V.V.V.V.V.V.V.    S B.B.B.B.B.B.B.4   h.B.B.B.B.B.B./     V.V.V.V.V.V.V.V.V.V.V.V.V.V.V.V.V.V.",
"V.V.V.V.V.V.V.V.V.V.V.V.V.V.V.V.V.V.V.V.  6 l.B.B.B.B.B.B.B.3   g.B.B.B.B.B.B.m.s     V.V.V.V.V.V.V.V.V.V.V.V.V.V.V.V.V.",
"V.V.V.V.V.V.V.V.V.V.V.V.V.V.V.V.V.V.V.    o.B.B.B.B.m.` K K $   D K E v.B.B.B.B.8.    V.V.V.V.V.V.V.V.V.V.V.V.V.V.V.V.V.",
"V.V.V.V.V.V.V.V.V.V.V.V.V.V.V.V.V.V.V.  @ z.B.B.B.B.a..               >.B.B.B.B.B.9   V.V.V.V.V.V.V.V.V.V.V.V.V.V.V.V.V.",
"V.V.V.V.V.V.V.V.V.V.V.V.V.V.V.V.V.V.V.  C B.B.B.B.B.B.3.O.O.-   ..O.<.N.B.B.B.B.B.Q     V.V.V.V.V.V.V.V.V.V.V.V.V.V.V.V.",
"V.V.V.V.V.V.V.V.V.V.V.V.V.V.V.V.V.V.    ) B.B.B.B.B.B.B.B.B.3   g.B.B.B.B.B.B.B.B.&.    V.V.V.V.V.V.V.V.V.V.V.V.V.V.V.V.",
"V.V.V.V.V.V.V.V.V.V.V.V.V.V.V.V.V.V.    ] B.B.B.B.B.B.B.B.B.7   j.B.B.B.B.B.B.B.B.;.    V.V.V.V.V.V.V.V.V.V.V.V.V.V.V.V.",
"V.V.V.V.V.V.V.V.V.V.V.V.V.V.V.V.V.V.    } B.B.B.B.B.B.B.B.B.%.[ B.B.B.B.B.B.B.B.B.,.    V.V.V.V.V.V.V.V.V.V.V.V.V.V.V.V.",
"V.V.V.V.V.V.V.V.V.V.V.V.V.V.V.V.V.V.V.  J B.B.B.B.B.B.B.B.B.B.B.B.B.B.B.B.B.B.B.B.'     V.V.V.V.V.V.V.V.V.V.V.V.V.V.V.V.",
"V.V.V.V.V.V.V.V.V.V.V.V.V.V.V.V.V.V.V.  ; n.B.B.B.B.B.B.B.B.B.B.B.B.B.B.B.B.B.B.B.a   V.V.V.V.V.V.V.V.V.V.V.V.V.V.V.V.V.",
"V.V.V.V.V.V.V.V.V.V.V.V.V.V.V.V.V.V.V.     .B.B.B.B.B.B.B.B.B.B.B.B.B.B.B.B.B.B.2.    V.V.V.V.V.V.V.V.V.V.V.V.V.V.V.V.V.",
"V.V.V.V.V.V.V.V.V.V.V.V.V.V.V.V.V.V.V.V.  O 2.B.B.B.B.B.B.B.B.B.B.B.B.B.B.B.B.p.<   V.V.V.V.V.V.V.V.V.V.V.V.V.V.V.V.V.V.",
"V.V.V.V.V.V.V.V.V.V.V.V.V.V.V.V.V.V.V.V.    % W j.B.B.B.B.B.B.B.B.B.B.B.B.c.] ,     V.V.V.V.V.V.V.V.V.V.V.V.V.V.V.V.V.V.",
"V.V.V.V.V.V.V.V.V.V.V.V.V.V.V.V.V.V.V.V.V.      . @ # # # # # # # # # # # .       V.V.V.V.V.V.V.V.V.V.V.V.V.V.V.V.V.V.V.",
"V.V.V.V.V.V.V.V.V.V.V.V.V.V.V.V.V.V.V.V.V.V.                                    V.V.V.V.V.V.V.V.V.V.V.V.V.V.V.V.V.V.V.V.",
"V.V.V.V.V.V.V.V.V.V.V.V.V.V.V.V.V.V.V.V.V.    * ;.b.b.b.b.b.b.b.b.b.b.b.b.9.8     V.V.V.V.V.V.V.V.V.V.V.V.V.V.V.V.V.V.V.",
"V.V.V.V.V.V.V.V.V.V.V.V.V.V.V.V.V.V.V.V.V.  . 4.B.B.B.B.B.B.B.B.B.B.B.B.B.B.s.=   V.V.V.V.V.V.V.V.V.V.V.V.V.V.V.V.V.V.V.",
"V.V.V.V.V.V.V.V.V.V.V.V.V.V.V.V.V.V.V.V.    U B.B.B.B.B.B.B.B.B.B.B.B.B.B.B.B.|     V.V.V.V.V.V.V.V.V.V.V.V.V.V.V.V.V.V.",
"V.V.V.V.V.V.V.V.V.V.V.V.V.V.V.V.V.V.V.V.    v K K K K K K K K K K K K K K K K Z     V.V.V.V.V.V.V.V.V.V.V.V.V.V.V.V.V.V.",
"V.V.V.V.V.V.V.V.V.V.V.V.V.V.V.V.V.V.V.V.                                            V.V.V.V.V.V.V.V.V.V.V.V.V.V.V.V.V.V.",
"V.V.V.V.V.V.V.V.V.V.V.V.V.V.V.V.V.V.V.V.  > O.O.O.O.O.O.O.O.O.O.O.O.O.O.O.O.O.O.y   V.V.V.V.V.V.V.V.V.V.V.V.V.V.V.V.V.V.",
"V.V.V.V.V.V.V.V.V.V.V.V.V.V.V.V.V.V.V.V.  X 5.B.B.B.B.B.B.B.B.B.B.B.B.B.B.B.B.e.2   V.V.V.V.V.V.V.V.V.V.V.V.V.V.V.V.V.V.",
"V.V.V.V.V.V.V.V.V.V.V.V.V.V.V.V.V.V.V.V.    . A *.k.B.B.B.B.B.B.B.B.B.B.x.<.I +     V.V.V.V.V.V.V.V.V.V.V.V.V.V.V.V.V.V.",
"V.V.V.V.V.V.V.V.V.V.V.V.V.V.V.V.V.V.V.V.V.          & e c H ~ ^ L m t -           V.V.V.V.V.V.V.V.V.V.V.V.V.V.V.V.V.V.V.",
"V.V.V.V.V.V.V.V.V.V.V.V.V.V.V.V.V.V.V.V.V.V.V.V.                            V.V.V.V.V.V.V.V.V.V.V.V.V.V.V.V.V.V.V.V.V.V.",
"V.V.V.V.V.V.V.V.V.V.V.V.V.V.V.V.V.V.V.V.V.V.V.V.V.          X O           V.V.V.V.V.V.V.V.V.V.V.V.V.V.V.V.V.V.V.V.V.V.V.",
"V.V.V.V.V.V.V.V.V.V.V.V.                                1 K y.f.R 7                                 V.V.V.V.V.V.V.V.V.V.",
"V.V.V.V.V.V.V.V.V.V.            > q r i d k N J Q { +.9.M.B.B.B.B.B.r.$. .~ P V l f p t q 2           V.V.V.V.V.V.V.V.V.",
"V.V.V.V.V.V.V.V.V.    * T =.0.z.B.B.B.B.B.B.B.B.B.B.B.B.d.-.! R @.i.B.B.B.B.B.B.B.B.B.B.B.B.c.w.:.F .     V.V.V.V.V.V.V.",
"V.V.V.V.V.V.V.V.    7 u.9.%.[ Y B h k z v M M b x k h 6             , g k z v M M b x k h n I _ +.7.#.:     V.V.V.V.V.V.",
"V.V.V.V.V.V.V.V.    . X                                     V.V.                                      X     V.V.V.V.V.V.",
"V.V.V.V.V.V.V.V.V.V.          V.V.V.V.V.V.V.V.V.V.V.V.V.V.V.V.V.V.V.V.V.V.V.V.V.V.V.V.V.V.V.V.            V.V.V.V.V.V.V.",
"V.V.V.V.V.V.V.V.V.V.V.V.V.V.V.V.V.V.V.V.V.V.V.V.V.V.V.V.V.V.V.V.V.V.V.V.V.V.V.V.V.V.V.V.V.V.V.V.V.V.V.V.V.V.V.V.V.V.V.V.",
"V.V.V.V.V.V.V.V.V.V.V.V.V.V.V.V.V.V.V.V.V.V.V.V.V.V.V.V.V.V.V.V.V.V.V.V.V.V.V.V.V.V.V.V.V.V.V.V.V.V.V.V.V.V.V.V.V.V.V.V.",
"V.V.V.V.V.V.V.V.V.V.V.V.V.V.V.V.V.V.V.V.V.V.V.V.V.V.V.V.V.V.V.V.V.V.V.V.V.V.V.V.V.V.V.V.V.V.V.V.V.V.V.V.V.V.V.V.V.V.V.V.",
"V.V.V.V.V.V.V.V.V.V.V.V.V.V.V.V.V.V.V.V.V.V.V.V.V.V.V.V.V.V.V.V.V.V.V.V.V.V.V.V.V.V.V.V.V.V.V.V.V.V.V.V.V.V.V.V.V.V.V.V.",
"V.V.V.V.V.V.V.V.V.V.V.V.V.V.V.V.V.V.V.V.V.V.V.V.V.V.V.V.V.V.V.V.V.V.V.V.V.V.V.V.V.V.V.V.V.V.V.V.V.V.V.V.V.V.V.V.V.V.V.V.",
"V.V.V.V.V.V.V.V.V.V.V.V.V.V.V.V.V.V.V.V.V.V.V.V.V.V.V.V.V.V.V.V.V.V.V.V.V.V.V.V.V.V.V.V.V.V.V.V.V.V.V.V.V.V.V.V.V.V.V.V.",
"V.V.V.V.V.V.V.V.V.V.V.V.V.V.V.V.V.V.V.V.V.V.V.V.V.V.V.V.V.V.V.V.V.V.V.V.V.V.V.V.V.V.V.V.V.V.V.V.V.V.V.V.V.V.V.V.V.V.V.V."
};
